<?xml version="1.0" ?>
<!-- Uploaded to: SVG Repo, www.svgrepo.com, Generator: SVG Repo Mixer Tools -->
<svg fill="#000000" width="800px" height="800px" viewBox="0 0 32 32" id="Camada_1" version="1.1" xml:space="preserve" xmlns="http://www.w3.org/2000/svg" xmlns:xlink="http://www.w3.org/1999/xlink">
<g>
<path d="M19.8,26.1h-0.2c-2.4,0-4.8,0-7.2,0c-0.3,0-0.5-0.1-0.6-0.3c-2.5-3.2-5.1-6.3-7.6-9.5C4.1,16.1,4,16,4,15.8   c0-3.1,0-6.1,0-9.2c0-0.1,0-0.2,0.1-0.2h0.1c5.2,6.5,10.4,13,15.5,19.5c0,0,0,0.1,0.1,0.1L19.8,26.1L19.8,26.1z"/>
<path d="M27.8,16.3c-0.7,0.9-1.5,1.8-2.2,2.8c-0.2,0.2-0.4,0.3-0.6,0.3c-2.4,0-4.8,0-7.1,0c0,0-0.1,0-0.1,0c-0.1,0-0.2-0.1-0.1-0.2   c0,0,0-0.1,0.1-0.1c2.4-3,4.7-5.9,7.1-8.9c1-1.2,2-2.5,2.9-3.7c0-0.1,0.1-0.1,0.2-0.1c0,0,0.1,0,0.1,0c0,0.1,0,0.1,0,0.2   c0,3,0,6.1,0,9.1C28,16,27.9,16.2,27.8,16.3L27.8,16.3z"/>
</g>
</svg>